<?xml version="1.0" encoding="iso-8859-1"?>
<!-- Generator: Adobe Illustrator 16.0.0, SVG Export Plug-In . SVG Version: 6.00 Build 0)  -->
<!DOCTYPE svg PUBLIC "-//W3C//DTD SVG 1.1//EN" "http://www.w3.org/Graphics/SVG/1.1/DTD/svg11.dtd">
<svg version="1.1" id="Capa_1" xmlns="http://www.w3.org/2000/svg" xmlns:xlink="http://www.w3.org/1999/xlink" x="0px" y="0px"
	 width="612.002px" height="612.002px" viewBox="0 0 612.002 612.002" style="enable-background:new 0 0 612.002 612.002;"
	 xml:space="preserve">
<g>
	<path style="fill: darkred" d="M342.728,8.663l82.718,82.73c11.568,11.569,11.568,30.32,0,41.873l-48.434,48.434c-8.317,8.317-20.363,10.567-30.77,6.895
		c0.32,7.982-2.469,16.039-8.564,22.148l-12.352,12.352l190.688,190.703c4.558,4.543,7.242,10.247,8.215,16.154
		c11.017-5.298,24.589-3.498,33.718,5.633l45.371,45.386c11.553,11.553,11.553,30.307,0,41.873l-80.496,80.482
		c-11.553,11.583-30.32,11.553-41.873,0l-45.372-45.372c-9.129-9.114-10.928-22.671-5.632-33.703
		c-5.908-0.958-11.598-3.657-16.155-8.215L223.102,325.348l-12.367,12.366c-6.081,6.081-14.165,8.882-22.134,8.563
		c3.658,10.421,1.437,22.455-6.896,30.77l-48.419,48.434c-11.569,11.569-30.307,11.583-41.873,0L8.697,342.765
		c-11.569-11.553-11.569-30.306,0-41.873l48.419-48.434c8.332-8.331,20.363-10.551,30.801-6.879
		c-0.32-7.982,2.438-16.081,8.535-22.163L223.407,96.476c6.081-6.11,14.194-8.868,22.162-8.55
		c-3.686-10.437-1.466-22.468,6.879-30.8l48.42-48.436C312.406-2.892,331.175-2.892,342.728,8.663z"/>
</g>
<g>
</g>
<g>
</g>
<g>
</g>
<g>
</g>
<g>
</g>
<g>
</g>
<g>
</g>
<g>
</g>
<g>
</g>
<g>
</g>
<g>
</g>
<g>
</g>
<g>
</g>
<g>
</g>
<g>
</g>
</svg>
